<svg xmlns="http://www.w3.org/2000/svg" width="1180.7028mm" height="400mm" viewBox="0 0 1180.7028 400"><defs><clipPath id="a" clipPathUnits="userSpaceOnUse"><path d="M0 595.28h841.89V0H0Z"/></clipPath></defs><g clip-path="url(#a)" transform="matrix(2.27542 0 0 -2.27542 -367.395 878.065)"><path d="M0 0c-.77 9.156 3.934 26.061 16.041 27.148.246.023.476.025.711.033 7.077-.234 8.705-6.715 9.032-10.615.752-8.955-4.069-26.218-15.957-27.285-.225-.02-.438-.021-.657-.03C1.709-10.507.268-3.187 0 0m17.355 35.203c-4.532 0-8.053-.625-11.31-1.908-12.506-4.998-18.726-20.367-18.229-32.291.506-12.16 8.272-19.517 20.786-19.715 7.734-.123 14.757 2.785 19.832 8.051 6.243 6.484 9.873 16.476 9.472 26.078-.515 12.389-8.278 19.785-20.551 19.785" style="fill:#ffffff;fill-opacity:1;fill-rule:nonzero;stroke:none" transform="translate(491.081 228.815)"/><path d="M0 0c1.781 7.783 6.745 12.761 8.665 14.1 2.93 2.042 9.513 5.149 13.553 2.072.995-.758 1.602-2.393 1.484-3.926-.235-2.998-2.752-6.055-6.908-8.391C11.007.604 5.011-.011 1.467-.052.878-.044.376-.022 0 0m28.926 23.258c-2.28 1.4-5.306 2.291-8.524 2.506-.663.044-1.333.05-2.006.04-3.666.07-7.499-.662-11.334-2.204C-4.177 19.078-11.892 7.727-12.593-5.318c-.352-6.577 1.438-12.293 5.183-16.534 3.407-3.861 8.339-5.677 13.501-6.078 0 0 .986-.093 2.555-.075 3.344-.045 10.947.375 16.349 4.657 2.793 2.213 3.62 7.231 1.398 10.045l-.025-.022-.014.022s-7.044-5.719-15.017-6.073c-.951.016-1.924.082-2.932.263-8.502 1.52-9.197 9.647-9.198 11.86a62.511 62.511 0 0 1 1.619-.006c11.419-.019 21.623 3.03 27.33 8.157 3.661 3.288 5.855 6.299 6.225 11.971.464 7.113-5.43 10.377-5.455 10.389" style="fill:#ffffff;fill-opacity:1;fill-rule:nonzero;stroke:none" transform="translate(606.4 238.236)"/><path d="M0 0c.021-.009 5.323 30.275 5.323 30.275s2.122.562 6.017.599a47.233 47.233 0 0 0 1.976-.063c7.735-.411 16.082-3.963 13.575-15.901-1.047-4.988-4.683-9.889-8.946-12.359C11.729-1.051 2.313-.301 0 0m13.451 39.41c-.748.008-1.475.008-2.185.003-10.625-.006-17.147-1.419-17.147-1.419L-20.138-43.01h7.112c3.412 0 5.75 1.608 6.464 5.664l4.937 28.113a138.81 138.81 0 0 1 8.593-.249c19.224.048 30.754 12.078 32.981 24.011C43.12 31.5 29.288 39.244 13.451 39.41" style="fill:#ffffff;fill-opacity:1;fill-rule:nonzero;stroke:none" transform="translate(209.071 254.861)"/><path d="M0 0c-9.831.775-15.438-5.521-19.059-11.31-.368 3.638-1.546 6.473-3.527 8.436C-24.516-.96-27.21-.011-30.312.052c-8.517.171-14.01-5.312-18.191-12.8.043.291.089.588.129.871.731 5.303.444 7.297-1.157 9.377 0 0-1.436 2.088-5.569 1.918-1.486.054-3.376-.191-5.764-1.023 1.362-1.535 1.356-4.447.091-13.365-.082-.583-5.945-34.166-5.945-34.166s-.378-2.281 1.995-2.281l9.174.004s1.201 7.064 1.421 8.213c1.034 4.687 1.825 9.553 4.735 16.387 5.976 14.037 15.324 19.817 18.16 16.597.964-1.095 1.075-3.803.512-7.566l-5.497-31.354s-.378-2.281 1.995-2.281l9.161.004 1.177 6.84c1.955 11.738 4.729 18.385 4.729 18.385C-13.877-13.517-6.764-8.194-3.728-9.222c.737-.249 2.045-.955 2.587-3.339.309-1.474.327-3.875-.122-6.562-.491-3.688-2.825-13.948-3.904-21.646-.731-5.302-.444-7.296 1.156-9.377 0 0 1.436-2.087 5.568-1.917 1.486-.054 3.376.192 5.764 1.023-1.36 1.534-1.524 4.786-.13 13.419.85 5.258 2.061 10.894 2.061 10.894 1.713 8.334 2.294 15.454.49 19.834C7.54-1.545 2.35-.186 0 0" style="fill:#ffffff;fill-opacity:1;fill-rule:nonzero;stroke:none" transform="translate(401.417 263.396)"/><path d="M0 0c-9.727.769-15.892-5.346-20.195-12.855.05.331.101.666.147.988.732 5.303.321 7.729-1.157 9.377-2.854 3.179-8.942 1.726-11.331.894 1.36-1.534 1.356-4.446.089-13.364a92.175 92.175 0 0 0-.594-3.693h.021l-5.307-30.473s-.378-2.281 1.995-2.281l9.148.004s1.204 7.064 1.421 8.213c1.034 4.687 2.213 9.694 5.064 16.552 5.91 14.219 14.613 18.563 17.301 17.36 1.092-.49 1.906-1.594 2.259-3.273.311-1.474.327-3.875-.122-6.562-.491-3.688-2.825-13.949-3.904-21.646-.731-5.303-.444-7.297 1.156-9.377 0 0 1.436-2.088 5.568-1.917 1.486-.054 3.376.192 5.764 1.023-1.36 1.534-1.524 4.786-.13 13.419.85 5.257 2.061 10.894 2.061 10.894 1.713 8.334 2.332 15.469.49 19.834C7.492-1.544 2.101-.166 0 0" style="fill:#ffffff;fill-opacity:1;fill-rule:nonzero;stroke:none" transform="translate(574.183 263.386)"/><path d="M0 0a396.742 396.742 0 0 1-7.674-.575l-1.037-6.021a210.969 210.969 0 0 0-1.148-5.889 77.07 77.07 0 0 0-3.885-11.505c-5.979-14.037-13.98-18.119-16.989-17.467-.989.215-2.045 1.064-2.574 3.38-.308 1.474-.326 3.875.122 6.562.492 3.688 2.828 13.949 3.907 21.646.731 5.303.444 7.297-1.157 9.377 0 0-1.435 2.088-5.567 1.918-1.486.053-3.376-.192-5.765-1.024 1.361-1.534 1.525-4.786.13-13.419-.851-5.257-1.253-6.399-2.062-10.894-.92-5.106-1.875-10.582-1.496-15.613.469-6.234 4.784-10.5 10.752-11.105 9.418-.954 15.874 5.369 20.163 12.65l-.116-.782c-.731-5.302-.444-7.297 1.157-9.377 0 0 1.435-2.088 5.567-1.917 1.486-.054 3.376.192 5.765 1.023-1.363 1.534-1.357 4.446-.089 13.364.17 1.209.373 2.498.592 3.693h-.021l3.353 19.432 1.51 8.574C3.831-1.811 3.103.193 0 0" style="fill:#ffffff;fill-opacity:1;fill-rule:nonzero;stroke:none" transform="translate(293.52 261.411)"/><path d="M0 0a396.742 396.742 0 0 1-7.674-.575l-1.037-6.021a210.969 210.969 0 0 0-1.148-5.889 77.07 77.07 0 0 0-3.885-11.505c-5.979-14.037-13.98-18.119-16.989-17.467-.989.215-2.045 1.064-2.574 3.38-.308 1.474-.326 3.875.122 6.562.492 3.688 2.828 13.949 3.907 21.646.731 5.303.444 7.297-1.157 9.377 0 0-1.435 2.088-5.567 1.918-1.486.053-3.376-.192-5.765-1.024 1.361-1.534 1.525-4.786.13-13.419-.851-5.257-1.253-6.399-2.062-10.894-.92-5.106-1.875-10.582-1.496-15.613.469-6.234 4.784-10.5 10.752-11.105 9.418-.954 15.874 5.369 20.163 12.65l-.116-.782c-.731-5.302-.444-7.297 1.157-9.377 0 0 1.435-2.088 5.567-1.917 1.486-.054 3.376.192 5.765 1.023-1.363 1.534-1.357 4.446-.089 13.364.17 1.209.373 2.498.592 3.693h-.021l3.353 19.432 1.51 8.574C3.831-1.811 3.103.193 0 0" style="fill:#ffffff;fill-opacity:1;fill-rule:nonzero;stroke:none" transform="translate(468.687 261.411)"/><path d="M0 0a4.375 4.375 0 0 1-1.001-.096l-9.232-1.912-12.569-71.25c-.633-4.069-.389-5.698.399-7.296.767-1.383 1.976-2.173 3.297-2.602 1.421-.446 2.894-.553 4.168-.518 2.431-.066 4.394.467 4.394.467s-1.246 3.908-.207 10.071L1.454-3.861C1.804-1.879 2.009.005 0 0" style="fill:#ffffff;fill-opacity:1;fill-rule:nonzero;stroke:none" transform="translate(329.525 294.983)"/><path d="M0 0c-103.127 0-195.243 25.217-257.524 63.928-.465.281-.9.593-1.347.939-.587.463-.727 1.291-.424 1.975.282.728 1.007 1.244 1.817 1.084a17.6 17.6 0 0 0 1.644-.471C-186.804 44.029-97.353 30.797 0 30.797c97.344 0 186.791 13.232 255.842 36.658.441.16 1.068.35 1.653.471.774.16 1.481-.356 1.83-1.084.239-.684.147-1.512-.516-1.975a9.785 9.785 0 0 0-1.288-.939C195.232 25.174 103.113 0 0 0" style="fill:#8cc63f;fill-opacity:1;fill-rule:nonzero;stroke:none" transform="translate(420.913 317.937)"/></g></svg>